<svg width="39" height="39" viewBox="0 0 39 39" fill="none" xmlns="http://www.w3.org/2000/svg">
<path d="M29.25 4.875C27.9571 4.875 26.7171 5.38861 25.8029 6.30285C24.8886 7.21709 24.375 8.45707 24.375 9.75V29.25C24.375 30.5429 24.8886 31.7829 25.8029 32.6971C26.7171 33.6114 27.9571 34.125 29.25 34.125C30.5429 34.125 31.7829 33.6114 32.6971 32.6971C33.6114 31.7829 34.125 30.5429 34.125 29.25C34.125 27.9571 33.6114 26.7171 32.6971 25.8029C31.7829 24.8886 30.5429 24.375 29.25 24.375H9.75C8.45707 24.375 7.21709 24.8886 6.30285 25.8029C5.38861 26.7171 4.875 27.9571 4.875 29.25C4.875 30.5429 5.38861 31.7829 6.30285 32.6971C7.21709 33.6114 8.45707 34.125 9.75 34.125C11.0429 34.125 12.2829 33.6114 13.1971 32.6971C14.1114 31.7829 14.625 30.5429 14.625 29.25V9.75C14.625 8.45707 14.1114 7.21709 13.1971 6.30285C12.2829 5.38861 11.0429 4.875 9.75 4.875C8.45707 4.875 7.21709 5.38861 6.30285 6.30285C5.38861 7.21709 4.875 8.45707 4.875 9.75C4.875 11.0429 5.38861 12.2829 6.30285 13.1971C7.21709 14.1114 8.45707 14.625 9.75 14.625H29.25C30.5429 14.625 31.7829 14.1114 32.6971 13.1971C33.6114 12.2829 34.125 11.0429 34.125 9.75C34.125 8.45707 33.6114 7.21709 32.6971 6.30285C31.7829 5.38861 30.5429 4.875 29.25 4.875Z" stroke="#F9D423" stroke-width="2" stroke-linecap="round" stroke-linejoin="round"/>
</svg>
