<svg width="1245" height="1080" viewBox="0 0 1245 1080" fill="none" xmlns="http://www.w3.org/2000/svg">
<path d="M0 103.692V35C0 -6.42134 33.5786 -40 75 -40H1290C1331.42 -40 1365 -6.42137 1365 35V1005C1365 1046.42 1331.42 1080 1290 1080H720.037C699.979 1080 680.757 1071.97 666.665 1057.69L477.123 865.699C463.265 851.662 455.495 832.732 455.495 813.007V623.133C455.495 581.711 421.917 548.133 380.495 548.133H315.125C273.704 548.133 240.125 514.554 240.125 473.133V253.692C240.125 212.271 206.546 178.692 165.125 178.692H75C33.5786 178.692 0 145.113 0 103.692Z" fill="#FBFAFF"/>
</svg>
