<svg width="35" height="28" viewBox="0 0 35 28" fill="none" xmlns="http://www.w3.org/2000/svg">
<path d="M0 9.12676C0.299442 8.29571 0.912932 8.01625 1.75922 8.03916C2.94603 8.07031 4.13284 8.03916 5.31235 8.05199C5.55154 8.05199 5.66748 7.98693 5.75786 7.75329C6.63671 5.4999 7.52408 3.25048 8.41997 1.00503C8.78515 0.0887705 9.69808 -0.262158 10.4622 0.210633C11.0629 0.577137 11.2555 1.26616 10.9598 2.01841C10.2373 3.85521 9.51215 5.68987 8.78424 7.52239C8.72307 7.67907 8.66373 7.83758 8.59161 8.0245H26.3984C26.3491 7.89348 26.3071 7.78078 26.266 7.67082C25.521 5.78272 24.7745 3.8943 24.0266 2.00559C23.823 1.49156 23.823 0.997701 24.1662 0.545984C24.8162 -0.313468 26.0834 -0.133881 26.5207 0.890498C26.9041 1.79301 27.251 2.71202 27.6107 3.6237C28.1585 5.00267 28.7062 6.37981 29.2403 7.76337C29.3252 7.98235 29.4293 8.05291 29.6603 8.05016C30.9018 8.03916 32.1434 8.04374 33.3841 8.04558C34.4705 8.04558 34.9945 8.57701 34.9945 9.66919C34.9945 13.3736 34.99 17.079 35 20.7834C35.0082 21.0337 34.9637 21.2829 34.8693 21.5147C34.7749 21.7465 34.6328 21.9557 34.4522 22.1285C32.6842 23.8938 30.9225 25.6653 29.1673 27.4428C28.9952 27.6242 28.7869 27.7671 28.5559 27.8618C28.3249 27.9566 28.0765 28.0011 27.8271 27.9926C20.9497 27.984 14.0701 27.984 7.18843 27.9926C6.93322 28.001 6.67915 27.9549 6.44306 27.8572C6.20697 27.7596 5.99426 27.6127 5.81903 27.4263C4.06985 25.6643 2.30789 23.9051 0.563279 22.1312C0.338698 21.9077 0.182586 21.6053 0 21.3396V9.12676ZM2.75249 10.8118C2.74519 10.8906 2.73515 10.9465 2.73515 11.0014C2.73515 14.0773 2.73515 17.1532 2.74245 20.2282C2.75704 20.3813 2.82492 20.5244 2.93416 20.6322C4.3912 22.1123 5.85555 23.585 7.32719 25.0504C7.45607 25.1686 7.62287 25.2366 7.79736 25.2419C14.2664 25.2523 20.7357 25.2523 27.2054 25.2419C27.3795 25.2347 27.5453 25.1651 27.6728 25.0459C29.1381 23.589 30.5878 22.1184 32.0503 20.6597C32.1232 20.5906 32.1802 20.5063 32.2173 20.4128C32.2543 20.3193 32.2706 20.2187 32.2649 20.1182C32.2588 17.1337 32.2572 14.1494 32.2603 11.1654V10.8118H2.75249Z" fill="white"/>
</svg>
