<svg width="211" height="37" viewBox="0 0 211 37" fill="none" xmlns="http://www.w3.org/2000/svg">
<path d="M12.8843 36.1611C12.4009 36.1611 11.998 35.991 11.6758 35.6509C11.3535 35.2928 11.1924 34.8721 11.1924 34.3887V4.20312H2.00781C1.52441 4.20312 1.10368 4.03304 0.745605 3.69287C0.405436 3.3348 0.235352 2.90511 0.235352 2.40381C0.235352 1.92041 0.405436 1.50863 0.745605 1.16846C1.10368 0.810384 1.52441 0.631348 2.00781 0.631348H24.083C24.5664 0.631348 24.9782 0.810384 25.3184 1.16846C25.6764 1.52653 25.8555 1.94727 25.8555 2.43066C25.8555 2.94987 25.6854 3.37956 25.3452 3.71973C25.005 4.04199 24.5843 4.20312 24.083 4.20312H14.6836V34.3887C14.6836 34.8721 14.5135 35.2928 14.1733 35.6509C13.8332 35.991 13.4035 36.1611 12.8843 36.1611ZM32.4351 36.3223C30.6626 36.3223 28.9707 35.9821 27.3594 35.3018C25.766 34.6214 24.3695 33.6815 23.1699 32.4819C21.9525 31.2824 21.0036 29.8859 20.3232 28.2925C19.6429 26.6812 19.3027 24.9893 19.3027 23.2168C19.3027 21.4443 19.6429 19.7614 20.3232 18.168C21.0036 16.5566 21.9525 15.1423 23.1699 13.9248C24.3695 12.7253 25.766 11.7853 27.3594 11.105C28.9707 10.4246 30.6626 10.0845 32.4351 10.0845C34.1896 10.0845 35.8636 10.4246 37.457 11.105C39.0684 11.7853 40.4827 12.7253 41.7002 13.9248C42.8997 15.1243 43.8397 16.5208 44.52 18.1143C45.2183 19.7077 45.5763 21.3817 45.5942 23.1362C45.5942 23.6196 45.4331 24.0314 45.1108 24.3716C44.7886 24.6938 44.3678 24.855 43.8486 24.855H23.2773C23.4206 25.965 23.7518 27.0124 24.271 27.9971C24.8081 28.9639 25.4884 29.8143 26.312 30.5483C27.1535 31.2824 28.0934 31.8553 29.1318 32.2671C30.1882 32.6789 31.2892 32.8848 32.4351 32.8848C33.5093 32.8848 34.3866 32.7863 35.0669 32.5894C35.6756 32.4282 36.3918 32.1149 37.2153 31.6494C37.5734 31.4346 37.9404 31.3271 38.3164 31.3271C38.7998 31.3271 39.2116 31.5241 39.5518 31.918C39.8919 32.2939 40.062 32.7236 40.062 33.207C40.062 33.8516 39.7756 34.335 39.2026 34.6572C38.1642 35.248 37.1885 35.6598 36.2754 35.8926C35.1296 36.179 33.8494 36.3223 32.4351 36.3223ZM41.9419 21.8472C41.7987 20.6655 41.4585 19.5734 40.9214 18.5708C40.4022 17.5503 39.7129 16.6641 38.8535 15.9121C37.9941 15.1602 37.0184 14.5783 35.9263 14.1665C34.8341 13.7368 33.6883 13.522 32.4888 13.522C31.2713 13.522 30.1165 13.7368 29.0244 14.1665C27.9502 14.5962 26.9924 15.196 26.1509 15.9658C25.3273 16.7178 24.6559 17.604 24.1367 18.6245C23.6175 19.645 23.2952 20.7192 23.1699 21.8472H41.9419ZM50.9922 36C50.4909 36 50.0522 35.8299 49.6763 35.4897C49.3182 35.1496 49.1392 34.7199 49.1392 34.2007V23.7808C49.1392 21.9367 49.4883 20.1821 50.1865 18.5171C50.9027 16.8521 51.8874 15.384 53.1406 14.1128C54.4118 12.8416 55.8709 11.8569 57.5181 11.1587C59.1652 10.4425 60.9019 10.0845 62.728 10.0845H62.9429C63.5158 10.0845 63.9634 10.2546 64.2856 10.5947C64.6258 10.917 64.7959 11.3467 64.7959 11.8838C64.7959 12.403 64.6169 12.8327 64.2588 13.1729C63.9186 13.4951 63.48 13.6562 62.9429 13.6562H62.728C61.4032 13.6562 60.132 13.9159 58.9146 14.4351C57.6971 14.9543 56.6229 15.6794 55.6919 16.6104C54.7609 17.5413 54.0269 18.6335 53.4897 19.8867C52.9705 21.1221 52.7109 22.4201 52.7109 23.7808V34.2007C52.7109 34.7199 52.5409 35.1496 52.2007 35.4897C51.8784 35.8299 51.4756 36 50.9922 36ZM78.2236 36.3223C76.4512 36.3223 74.7772 35.991 73.2017 35.3286C71.6261 34.6483 70.2386 33.6994 69.0391 32.4819C67.8395 31.2824 66.9085 29.8859 66.2461 28.2925C65.5837 26.6991 65.2524 25.0161 65.2524 23.2437C65.2524 21.4533 65.5837 19.7614 66.2461 18.168C66.9085 16.5566 67.8395 15.1423 69.0391 13.9248C70.2386 12.7074 71.6261 11.7674 73.2017 11.105C74.7772 10.4246 76.4512 10.0845 78.2236 10.0845C80.014 10.0845 81.6969 10.4246 83.2725 11.105C84.848 11.7674 86.2355 12.7074 87.4351 13.9248C88.6167 15.1243 89.5387 16.5298 90.2012 18.1411C90.8636 19.7524 91.1948 21.4533 91.1948 23.2437V34.2812C91.1948 34.8005 91.0158 35.2391 90.6577 35.5972C90.2996 35.9552 89.861 36.1343 89.3418 36.1343C88.8226 36.1343 88.4019 35.9642 88.0796 35.624C87.7573 35.266 87.5962 34.8184 87.5962 34.2812L87.5693 32.3477C86.3519 33.6188 84.9465 34.6035 83.353 35.3018C81.7775 35.9821 80.0677 36.3223 78.2236 36.3223ZM78.2236 32.7505C79.5485 32.7505 80.7839 32.5088 81.9297 32.0254C83.0934 31.5241 84.096 30.8258 84.9375 29.9307C85.779 29.0534 86.4325 28.0418 86.8979 26.896C87.3634 25.7323 87.5962 24.5148 87.5962 23.2437C87.5962 21.9546 87.3634 20.7282 86.8979 19.5645C86.4325 18.3828 85.779 17.3623 84.9375 16.5029C84.0781 15.6257 83.0755 14.9453 81.9297 14.4619C80.7839 13.9606 79.5485 13.71 78.2236 13.71C76.9167 13.71 75.6903 13.9606 74.5444 14.4619C73.4165 14.9453 72.4229 15.6257 71.5635 16.5029C70.7041 17.3802 70.0327 18.4007 69.5493 19.5645C69.0838 20.7282 68.8511 21.9546 68.8511 23.2437C68.8511 24.5148 69.0838 25.7323 69.5493 26.896C70.0327 28.0418 70.7041 29.0534 71.5635 29.9307C72.4229 30.8258 73.4165 31.5241 74.5444 32.0254C75.6903 32.5088 76.9167 32.7505 78.2236 32.7505ZM109.269 36.3223C107.496 36.3223 105.804 35.9821 104.193 35.3018C102.599 34.6214 101.203 33.6815 100.003 32.4819C98.786 31.2824 97.8371 29.8859 97.1567 28.2925C96.4764 26.6991 96.1362 25.0161 96.1362 23.2437V2.51123C96.1362 1.99202 96.3063 1.55339 96.6465 1.19531C97.0046 0.83724 97.4342 0.658203 97.9355 0.658203C98.4548 0.658203 98.8755 0.83724 99.1978 1.19531C99.5379 1.53548 99.708 1.97412 99.708 2.51123V16.3955C100.048 15.5003 100.532 14.6678 101.158 13.8979C101.785 13.1281 102.537 12.4567 103.414 11.8838C104.273 11.3109 105.195 10.8722 106.18 10.5679C107.183 10.2635 108.212 10.1113 109.269 10.1113C111.059 10.1113 112.751 10.4515 114.344 11.1318C115.938 11.7943 117.334 12.7253 118.534 13.9248C119.733 15.1243 120.664 16.5298 121.327 18.1411C122.007 19.7345 122.347 21.4264 122.347 23.2168C122.347 25.0072 122.007 26.6991 121.327 28.2925C120.664 29.8859 119.733 31.2824 118.534 32.4819C117.334 33.6815 115.929 34.6214 114.317 35.3018C112.724 35.9821 111.041 36.3223 109.269 36.3223ZM109.269 32.7236C110.593 32.7236 111.829 32.4819 112.975 31.9985C114.138 31.4972 115.159 30.799 116.036 29.9038C116.913 29.0265 117.594 28.015 118.077 26.8691C118.561 25.7054 118.802 24.488 118.802 23.2168C118.802 21.9098 118.561 20.6834 118.077 19.5376C117.594 18.3739 116.913 17.3534 116.036 16.4761C115.159 15.5988 114.138 14.9185 112.975 14.4351C111.829 13.9517 110.593 13.71 109.269 13.71C107.962 13.71 106.726 13.9517 105.562 14.4351C104.399 14.9185 103.378 15.5988 102.501 16.4761C101.624 17.3534 100.934 18.3739 100.433 19.5376C99.9497 20.6834 99.708 21.9098 99.708 23.2168C99.708 24.488 99.9497 25.7054 100.433 26.8691C100.934 28.015 101.624 29.0265 102.501 29.9038C103.378 30.799 104.399 31.4972 105.562 31.9985C106.726 32.4819 107.962 32.7236 109.269 32.7236ZM137.843 36.3223C136.07 36.3223 134.396 35.991 132.821 35.3286C131.245 34.6483 129.858 33.6994 128.658 32.4819C127.459 31.2824 126.528 29.8859 125.865 28.2925C125.203 26.6991 124.872 25.0161 124.872 23.2437C124.872 21.4533 125.203 19.7614 125.865 18.168C126.528 16.5566 127.459 15.1423 128.658 13.9248C129.858 12.7074 131.245 11.7674 132.821 11.105C134.396 10.4246 136.07 10.0845 137.843 10.0845C139.633 10.0845 141.316 10.4246 142.892 11.105C144.467 11.7674 145.855 12.7074 147.054 13.9248C148.236 15.1243 149.158 16.5298 149.82 18.1411C150.483 19.7524 150.814 21.4533 150.814 23.2437V34.2812C150.814 34.8005 150.635 35.2391 150.277 35.5972C149.919 35.9552 149.48 36.1343 148.961 36.1343C148.442 36.1343 148.021 35.9642 147.699 35.624C147.376 35.266 147.215 34.8184 147.215 34.2812L147.188 32.3477C145.971 33.6188 144.566 34.6035 142.972 35.3018C141.397 35.9821 139.687 36.3223 137.843 36.3223ZM137.843 32.7505C139.168 32.7505 140.403 32.5088 141.549 32.0254C142.713 31.5241 143.715 30.8258 144.557 29.9307C145.398 29.0534 146.052 28.0418 146.517 26.896C146.983 25.7323 147.215 24.5148 147.215 23.2437C147.215 21.9546 146.983 20.7282 146.517 19.5645C146.052 18.3828 145.398 17.3623 144.557 16.5029C143.697 15.6257 142.695 14.9453 141.549 14.4619C140.403 13.9606 139.168 13.71 137.843 13.71C136.536 13.71 135.309 13.9606 134.164 14.4619C133.036 14.9453 132.042 15.6257 131.183 16.5029C130.323 17.3802 129.652 18.4007 129.168 19.5645C128.703 20.7282 128.47 21.9546 128.47 23.2437C128.47 24.5148 128.703 25.7323 129.168 26.896C129.652 28.0418 130.323 29.0534 131.183 29.9307C132.042 30.8258 133.036 31.5241 134.164 32.0254C135.309 32.5088 136.536 32.7505 137.843 32.7505ZM167.652 36.3223C165.88 36.3223 164.197 35.991 162.604 35.3286C161.028 34.6483 159.632 33.6994 158.414 32.4819C157.197 31.2824 156.248 29.8859 155.567 28.2925C154.887 26.6991 154.547 25.0161 154.547 23.2437C154.547 21.4533 154.887 19.7524 155.567 18.1411C156.248 16.5298 157.197 15.1243 158.414 13.9248C159.632 12.7074 161.028 11.7674 162.604 11.105C164.197 10.4246 165.88 10.0845 167.652 10.0845C169.98 10.0845 171.922 10.6126 173.48 11.6689C175.038 12.7074 176.273 14.2023 177.186 16.1538V2.53809C177.186 2.00098 177.347 1.56234 177.669 1.22217C178.01 0.864095 178.439 0.685059 178.958 0.685059C179.46 0.685059 179.881 0.864095 180.221 1.22217C180.579 1.58024 180.758 2.01888 180.758 2.53809V23.4048C180.74 25.1414 180.391 26.8065 179.71 28.3999C179.03 29.9754 178.09 31.354 176.891 32.5356C175.691 33.7352 174.295 34.6662 172.701 35.3286C171.108 35.991 169.425 36.3223 167.652 36.3223ZM167.652 32.7505C168.977 32.7505 170.222 32.5088 171.385 32.0254C172.549 31.5241 173.569 30.8258 174.447 29.9307C175.306 29.0534 175.978 28.0418 176.461 26.896C176.944 25.7323 177.186 24.5148 177.186 23.2437C177.186 21.9546 176.944 20.7282 176.461 19.5645C175.978 18.4007 175.306 17.3802 174.447 16.5029C173.569 15.6257 172.54 14.9453 171.358 14.4619C170.195 13.9606 168.959 13.71 167.652 13.71C166.345 13.71 165.11 13.9606 163.946 14.4619C162.8 14.9453 161.789 15.6257 160.912 16.5029C160.034 17.3802 159.345 18.4007 158.844 19.5645C158.36 20.7282 158.119 21.9546 158.119 23.2437C158.119 24.5148 158.36 25.7323 158.844 26.896C159.345 28.0418 160.034 29.0534 160.912 29.9307C161.789 30.8258 162.8 31.5241 163.946 32.0254C165.11 32.5088 166.345 32.7505 167.652 32.7505ZM197.489 36.3223C195.716 36.3223 194.024 35.9821 192.413 35.3018C190.82 34.6214 189.423 33.6815 188.224 32.4819C187.006 31.2824 186.057 29.8859 185.377 28.2925C184.697 26.6812 184.356 24.9893 184.356 23.2168C184.356 21.4443 184.697 19.7614 185.377 18.168C186.057 16.5566 187.006 15.1423 188.224 13.9248C189.423 12.7253 190.82 11.7853 192.413 11.105C194.024 10.4246 195.716 10.0845 197.489 10.0845C199.243 10.0845 200.917 10.4246 202.511 11.105C204.122 11.7853 205.536 12.7253 206.754 13.9248C207.953 15.1243 208.893 16.5208 209.574 18.1143C210.272 19.7077 210.63 21.3817 210.648 23.1362C210.648 23.6196 210.487 24.0314 210.165 24.3716C209.842 24.6938 209.422 24.855 208.902 24.855H188.331C188.474 25.965 188.806 27.0124 189.325 27.9971C189.862 28.9639 190.542 29.8143 191.366 30.5483C192.207 31.2824 193.147 31.8553 194.186 32.2671C195.242 32.6789 196.343 32.8848 197.489 32.8848C198.563 32.8848 199.44 32.7863 200.121 32.5894C200.729 32.4282 201.445 32.1149 202.269 31.6494C202.627 31.4346 202.994 31.3271 203.37 31.3271C203.854 31.3271 204.265 31.5241 204.605 31.918C204.946 32.2939 205.116 32.7236 205.116 33.207C205.116 33.8516 204.829 34.335 204.256 34.6572C203.218 35.248 202.242 35.6598 201.329 35.8926C200.183 36.179 198.903 36.3223 197.489 36.3223ZM206.996 21.8472C206.852 20.6655 206.512 19.5734 205.975 18.5708C205.456 17.5503 204.767 16.6641 203.907 15.9121C203.048 15.1602 202.072 14.5783 200.98 14.1665C199.888 13.7368 198.742 13.522 197.542 13.522C196.325 13.522 195.17 13.7368 194.078 14.1665C193.004 14.5962 192.046 15.196 191.205 15.9658C190.381 16.7178 189.71 17.604 189.19 18.6245C188.671 19.645 188.349 20.7192 188.224 21.8472H206.996Z" fill="white"/>
</svg>
