<svg width="1795" height="1113" viewBox="0 0 1795 1113" fill="none" xmlns="http://www.w3.org/2000/svg">
<path d="M0 1028.57V1070.18C0 1101.12 32.3292 1121.44 60.2135 1108.02L126.117 1076.3C131.799 1073.57 138.024 1072.15 144.33 1072.15H621.935C632.766 1072.15 643.179 1067.97 650.999 1060.47L734.761 980.177C742.581 972.681 752.994 968.496 763.825 968.496H1194.76C1205.59 968.496 1216 964.312 1223.82 956.816L1359.16 827.088C1366.98 819.593 1377.39 815.408 1388.22 815.408H1514.55C1537.75 815.408 1556.55 796.604 1556.55 773.408V574.62C1556.55 551.424 1575.36 532.62 1598.55 532.62H1753C1776.2 532.62 1795 513.816 1795 490.62V42C1795 18.804 1776.2 0 1753 0H1253.49C1215.64 0 1197.1 46.1293 1224.42 72.3198L1227.14 74.9285C1244.39 91.4621 1244.39 119.034 1227.14 135.568L1211.82 150.256C1203.56 158.178 1198.88 169.129 1198.88 180.576V318.927C1198.88 342.123 1180.08 360.927 1156.88 360.927H1131.09C1107.89 360.927 1089.09 379.731 1089.09 402.927V490.62C1089.09 513.816 1070.28 532.62 1047.09 532.62H883.216C860.02 532.62 841.216 551.424 841.216 574.62V637.861C841.216 661.057 822.412 679.861 799.216 679.861H616.321C605.49 679.861 595.077 684.046 587.257 691.541L470.223 803.728C462.404 811.223 451.991 815.408 441.159 815.408H246.065C222.87 815.408 204.065 834.212 204.065 857.408V944.569C204.065 967.765 185.261 986.569 162.065 986.569H42C18.804 986.569 0 1005.37 0 1028.57Z" fill="#FBFAFF"/>
</svg>
